<svg width="32" height="33" viewBox="0 0 32 33" fill="none" xmlns="http://www.w3.org/2000/svg">
<g id="Behance">
<path id="Vector" d="M15.9996 32.0851C15.1402 32.0851 14.2781 32.0163 13.4366 31.8806C9.72567 31.2814 6.32467 29.3688 3.86142 26.4953C1.37145 23.5906 0 19.8786 0 16.0425C0 7.1962 7.17782 0 15.9996 0C24.8213 0 32 7.19709 32 16.0425C32 19.9375 30.5912 23.6933 28.0317 26.6176C25.4972 29.5152 22.0152 31.402 18.2268 31.9315C17.4939 32.0342 16.7441 32.086 15.9996 32.086V32.0851ZM15.9996 1.07063C7.76647 1.07063 1.06866 7.78643 1.06866 16.0417C1.06866 23.4325 6.34158 29.6492 13.6067 30.8216C15.0725 31.0582 16.6051 31.0752 18.079 30.8689C25.4055 29.8456 30.9305 23.4709 30.9305 16.0417C30.9305 7.78643 24.2327 1.07063 15.9987 1.07063H15.9996Z" fill="#3C3C3B"/>
<g id="Group">
<path id="Vector_2" d="M14.8724 16.6157C14.6219 16.3003 14.3343 16.0589 14.0123 15.895C14.2974 15.7221 14.5413 15.5079 14.7434 15.255C15.0843 14.8276 15.2577 14.2905 15.2577 13.6588C15.2577 13.1324 15.1188 12.6489 14.8445 12.2206C14.5709 11.794 14.1643 11.4505 13.6361 11.2009C13.1177 10.9563 12.4943 10.8319 11.7821 10.8319H7.73633V21.3074H11.9677C12.661 21.3074 13.2796 21.1806 13.807 20.9318C14.3442 20.6781 14.7631 20.3231 15.0507 19.8775C15.339 19.4302 15.4852 18.922 15.4852 18.3669C15.4852 17.717 15.2782 17.1273 14.8716 16.6141L14.8724 16.6157ZM12.7235 14.7073C12.4729 14.9107 12.109 15.0137 11.6399 15.0137H9.89021V12.6926H11.6399C12.1065 12.6926 12.4696 12.7997 12.7193 13.0097C12.9592 13.2115 13.075 13.4899 13.075 13.8597C13.075 14.2296 12.96 14.5146 12.7226 14.7073H12.7235ZM9.89021 16.8719H11.7689C12.261 16.8719 12.6388 16.9913 12.9255 17.2376C13.1999 17.4732 13.333 17.787 13.333 18.1972C13.333 18.6074 13.2089 18.8965 12.9551 19.1123C12.6914 19.3372 12.3119 19.4508 11.8264 19.4508H9.89103V16.8719H9.89021Z" fill="#3C3C3B"/>
<path id="Vector_3" d="M23.7527 14.8637C23.4266 14.2732 22.9658 13.8078 22.3809 13.4816C21.7968 13.1554 21.1224 12.9899 20.3773 12.9899C19.6323 12.9899 18.9077 13.1604 18.3097 13.4956C17.7109 13.8317 17.2402 14.3168 16.9091 14.9354C16.5789 15.554 16.4121 16.2804 16.4121 17.0942C16.4121 17.908 16.5846 18.6345 16.9239 19.2531C17.264 19.8725 17.7396 20.3593 18.3376 20.6995C18.9357 21.0405 19.6216 21.2126 20.3773 21.2126C21.3048 21.2126 22.0934 20.9762 22.721 20.5108C23.3478 20.0446 23.7872 19.4392 24.0271 18.7095L24.0443 18.6576H22.2092L22.1985 18.6798C21.8453 19.3964 21.2333 19.7596 20.3782 19.7596C19.7818 19.7596 19.2725 19.5702 18.8626 19.1971C18.4625 18.833 18.2333 18.3462 18.1791 17.7482H24.1799L24.1848 17.7145C24.2234 17.4739 24.2423 17.2021 24.2423 16.9064C24.2423 16.1396 24.0772 15.4518 23.7519 14.8621L23.7527 14.8637ZM18.8905 14.97C19.2807 14.6207 19.7571 14.4437 20.3059 14.4437C20.9113 14.4437 21.4263 14.6232 21.8363 14.9782C22.2347 15.3233 22.4458 15.7862 22.4638 16.3546H18.1947C18.2752 15.7772 18.5085 15.3118 18.8896 14.9708L18.8905 14.97Z" fill="#3C3C3B"/>
<path id="Vector_4" d="M22.3254 11.0756H18.3281V12.0253H22.3254V11.0756Z" fill="#3C3C3B"/>
</g>
</g>
</svg>
