<svg width="32" height="33" viewBox="0 0 32 33" fill="none" xmlns="http://www.w3.org/2000/svg">
<g id="Linkedin">
<path id="Vector" d="M15.9996 32.258C15.1393 32.258 14.2772 32.1892 13.4366 32.0526C9.72565 31.4535 6.32465 29.5408 3.8614 26.6673C1.37143 23.7626 0 20.0506 0 16.2145C0 7.36819 7.1778 0.171997 15.9996 0.171997C24.8213 0.171997 32 7.36909 32 16.2145C32 20.1096 30.5912 23.8653 28.0317 26.7896C25.4972 29.6872 22.0152 31.574 18.2268 32.1035C17.4939 32.2062 16.7441 32.258 15.9996 32.258ZM15.9996 1.24353C7.76645 1.24353 1.06866 7.95932 1.06866 16.2145C1.06866 23.6063 6.34159 29.8221 13.6067 30.9945C15.0707 31.2311 16.6051 31.2481 18.079 31.0418C25.4055 30.0185 30.9305 23.6438 30.9305 16.2145C30.9305 7.95932 24.2327 1.24353 15.9987 1.24353H15.9996Z" fill="#3C3C3B"/>
<g id="Group">
<path id="Vector_2" d="M9.28015 11.7985C8.93819 11.4801 8.76758 11.0861 8.76758 10.6173C8.76758 10.1485 8.93819 9.73679 9.28015 9.41834C9.62211 9.0999 10.0623 8.94067 10.6022 8.94067C11.1421 8.94067 11.5646 9.0999 11.9058 9.41834C12.2478 9.73679 12.4184 10.1367 12.4184 10.6173C12.4184 11.0979 12.2478 11.4801 11.9058 11.7985C11.5638 12.117 11.1295 12.2762 10.6022 12.2762C10.0749 12.2762 9.62211 12.117 9.28015 11.7985ZM12.1303 13.6248V23.3832H9.05562V13.6248H12.1303Z" fill="#3C3C3B"/>
<path id="Vector_3" d="M22.368 14.5882C23.0379 15.3177 23.3732 16.3196 23.3732 17.5949V23.2113H20.4522V17.9911C20.4522 17.3483 20.286 16.8484 19.9536 16.4922C19.6212 16.136 19.1744 15.9582 18.6131 15.9582C18.0518 15.9582 17.6049 16.1367 17.2726 16.4922C16.9402 16.8484 16.774 17.3483 16.774 17.9911V23.2113H13.8359V13.5981H16.774V14.8733C17.0717 14.4482 17.4727 14.1127 17.9772 13.8654C18.4809 13.6188 19.0481 13.4951 19.6781 13.4951C20.8008 13.4951 21.6974 13.8602 22.3673 14.5889L22.368 14.5882Z" fill="#3C3C3B"/>
</g>
</g>
</svg>
